HIERARCHY
ROOT hip
{
  OFFSET 46.8334 85.0892 122.338
  CHANNELS 6 Xposition Yposition Zposition Zrotation Xrotation Yrotation
  JOINT abdomen
  {
    OFFSET 0 20.6881 -0.73152
    CHANNELS 3 Zrotation Xrotation Yrotation
    JOINT chest
    {
      OFFSET 0 11.7043 -0.48768
      CHANNELS 3 Zrotation Xrotation Yrotation
      JOINT neck
      {
        OFFSET 0 22.1894 -2.19456
        CHANNELS 3 Zrotation Xrotation Yrotation
        JOINT head
        {
          OFFSET -0.24384 7.07133 1.2192
          CHANNELS 3 Zrotation Xrotation Yrotation
          JOINT leftEye
          {
            OFFSET 4.14528 8.04674 8.04672
            CHANNELS 3 Zrotation Xrotation Yrotation
            End Site
            {
              OFFSET 1 0 0
            }
          }
          JOINT rightEye
          {
            OFFSET -3.6576 8.04674 8.04672
            CHANNELS 3 Zrotation Xrotation Yrotation
            End Site
            {
              OFFSET 1 0 0
            }
          }
        }
      }
      JOINT rCollar
      {
        OFFSET -2.68224 19.2634 -4.8768
        CHANNELS 3 Zrotation Xrotation Yrotation
        JOINT rShldr
        {
          OFFSET -8.77824 -1.95073 1.46304
          CHANNELS 3 Zrotation Xrotation Yrotation
          JOINT rForeArm
          {
            OFFSET -28.1742 -1.7115 0.48768
            CHANNELS 3 Zrotation Xrotation Yrotation
            JOINT rHand
            {
              OFFSET -22.5879 0.773209 7.07136
              CHANNELS 3 Zrotation Xrotation Yrotation
              JOINT rThumb1
              {
                OFFSET -1.2192 -0.487915 3.41376
                CHANNELS 3 Zrotation Xrotation Yrotation
                JOINT rThumb2
                {
                  OFFSET -3.37035 -0.52449 3.41376
                  CHANNELS 3 Zrotation Xrotation Yrotation
                  End Site
                  {
                    OFFSET -1.78271 -1.18214 1.43049
                  }
                }
              }
              JOINT rIndex1
              {
                OFFSET -7.75947 0.938293 5.60832
                CHANNELS 3 Zrotation Xrotation Yrotation
                JOINT rIndex2
                {
                  OFFSET -2.54057 -0.884171 1.56538
                  CHANNELS 3 Zrotation Xrotation Yrotation
                  End Site
                  {
                    OFFSET -1.62519 -0.234802 1.16502
                  }
                }
              }
              JOINT rMid1
              {
                OFFSET -8.24714 1.18213 3.41376
                CHANNELS 3 Zrotation Xrotation Yrotation
                JOINT rMid2
                {
                  OFFSET -3.10165 -0.590103 1.0647
                  CHANNELS 3 Zrotation Xrotation Yrotation
                  End Site
                  {
                    OFFSET -2.48547 -0.328903 0.83742
                  }
                }
              }
              JOINT rRing1
              {
                OFFSET -8.82822 0.546677 1.51678
                CHANNELS 3 Zrotation Xrotation Yrotation
                JOINT rRing2
                {
                  OFFSET -2.60934 -0.819778 -0.0198488
                  CHANNELS 3 Zrotation Xrotation Yrotation
                  End Site
                  {
                    OFFSET -2.33842 -0.294052 0.168128
                  }
                }
              }
              JOINT rPinky1
              {
                OFFSET -8.27202 -0.0477905 -0.4584
                CHANNELS 3 Zrotation Xrotation Yrotation
                JOINT rPinky2
                {
                  OFFSET -1.82734 -0.647385 -0.700984
                  CHANNELS 3 Zrotation Xrotation Yrotation
                  End Site
                  {
                    OFFSET -1.69225 -0.51767 -0.607171
                  }
                }
              }
            }
          }
        }
      }
      JOINT lCollar
      {
        OFFSET 2.68224 19.2634 -4.8768
        CHANNELS 3 Zrotation Xrotation Yrotation
        JOINT lShldr
        {
          OFFSET 8.77824 -1.95073 1.46304
          CHANNELS 3 Zrotation Xrotation Yrotation
          JOINT lForeArm
          {
            OFFSET 28.1742 -1.7115 0.48768
            CHANNELS 3 Zrotation Xrotation Yrotation
            JOINT lHand
            {
              OFFSET 22.5879 0.773209 7.07136
              CHANNELS 3 Zrotation Xrotation Yrotation
              JOINT lThumb1
              {
                OFFSET 1.2192 -0.487915 3.41376
                CHANNELS 3 Zrotation Xrotation Yrotation
                JOINT lThumb2
                {
                  OFFSET 3.37035 -0.52449 3.41376
                  CHANNELS 3 Zrotation Xrotation Yrotation
                  End Site
                  {
                    OFFSET 1.78271 -1.18214 1.43049
                  }
                }
              }
              JOINT lIndex1
              {
                OFFSET 7.75947 0.938293 5.60832
                CHANNELS 3 Zrotation Xrotation Yrotation
                JOINT lIndex2
                {
                  OFFSET 2.54057 -0.884171 1.56538
                  CHANNELS 3 Zrotation Xrotation Yrotation
                  End Site
                  {
                    OFFSET 1.62519 -0.234802 1.16502
                  }
                }
              }
              JOINT lMid1
              {
                OFFSET 8.24714 1.18213 3.41376
                CHANNELS 3 Zrotation Xrotation Yrotation
                JOINT lMid2
                {
                  OFFSET 3.10165 -0.590103 1.0647
                  CHANNELS 3 Zrotation Xrotation Yrotation
                  End Site
                  {
                    OFFSET 2.48547 -0.328903 0.83742
                  }
                }
              }
              JOINT lRing1
              {
                OFFSET 8.82822 0.546677 1.51678
                CHANNELS 3 Zrotation Xrotation Yrotation
                JOINT lRing2
                {
                  OFFSET 2.60934 -0.819778 -0.0198488
                  CHANNELS 3 Zrotation Xrotation Yrotation
                  End Site
                  {
                    OFFSET 2.33842 -0.294052 0.168128
                  }
                }
              }
              JOINT lPinky1
              {
                OFFSET 8.27202 -0.0477905 -0.4584
                CHANNELS 3 Zrotation Xrotation Yrotation
                JOINT lPinky2
                {
                  OFFSET 1.82734 -0.647385 -0.700984
                  CHANNELS 3 Zrotation Xrotation Yrotation
                  End Site
                  {
                    OFFSET 1.69225 -0.51767 -0.607171
                  }
                }
              }
            }
          }
        }
      }
    }
  }
  JOINT rButtock
  {
    OFFSET -8.77824 4.35084 1.2192
    CHANNELS 3 Zrotation Xrotation Yrotation
    JOINT rThigh
    {
      OFFSET 0 -1.70687 -2.19456
      CHANNELS 3 Zrotation Xrotation Yrotation
      JOINT rShin
      {
        OFFSET 0 -36.8199 0.73152
        CHANNELS 3 Zrotation Xrotation Yrotation
        JOINT rFoot
        {
          OFFSET 0.73152 -45.1104 -5.12064
          CHANNELS 3 Zrotation Xrotation Yrotation
          End Site
          {
            OFFSET -1.1221 -3.69964 12.103
          }
        }
      }
    }
  }
  JOINT lButtock
  {
    OFFSET 8.77824 4.35084 1.2192
    CHANNELS 3 Zrotation Xrotation Yrotation
    JOINT lThigh
    {
      OFFSET 0 -1.70687 -2.19456
      CHANNELS 3 Zrotation Xrotation Yrotation
      JOINT lShin
      {
        OFFSET 0 -36.8199 0.73152
        CHANNELS 3 Zrotation Xrotation Yrotation
        JOINT lFoot
        {
          OFFSET -0.73152 -45.1104 -5.12064
          CHANNELS 3 Zrotation Xrotation Yrotation
          End Site
          {
            OFFSET 1.1221 -3.69964 12.103
          }
        }
      }
    }
  }
}
MOTION
Frames:	7
Frame Time:	0.00833333
52.4235 85.5269 141.28 -1.77868 0.0059566 0.0336573 2.34099 -0.00222388 0.0637208 0.646591 0.00595034 0.111937 -5.53185e-014 7.95139e-016 7.20595e-016 -1.68041e-013 9.54166e-015 2.13228e-015 -0 0 0 -0 0 0 -2.79308e-014 1.13369e-016 3.97569e-016 -5.87847e-013 2.02512e-015 6.95746e-015 -1.01477e-011 3.10362e-012 2.41722e-013 -1.16016e-010 -2.61583e-012 1.34219e-012 -2.73685e-010 1.05988e-012 3.46362e-012 -4.72645e-010 1.83836e-012 5.95877e-012 -2.73679e-010 1.05952e-012 3.45408e-012 7.73091 5.47488 0.417314 -2.73685e-010 1.05972e-012 3.45726e-012 2.90554 0.965183 0.102902 -2.73678e-010 1.06032e-012 3.4509e-012 10.2786 0.731801 0.0259123 -2.73691e-010 1.06151e-012 3.46044e-012 2.22167 -0.733487 -0.20892 -2.80289e-014 1.09875e-016 1.98785e-016 -5.91295e-013 2.23633e-015 4.96962e-015 -1.01343e-011 -2.95354e-012 2.3218e-013 -1.16032e-010 3.45142e-012 1.33901e-012 -2.73683e-010 1.07978e-012 3.44772e-012 -4.72634e-010 1.86062e-012 5.98024e-012 -2.73687e-010 1.07861e-012 3.45726e-012 -7.73091 5.47488 -0.417314 -2.73685e-010 1.0801e-012 3.45408e-012 -2.90554 0.965183 -0.102902 -2.73686e-010 1.0799e-012 3.45408e-012 -10.2786 0.731801 -0.0259123 -2.73676e-010 1.08377e-012 3.45408e-012 -2.22167 -0.733487 0.20892 -2.03217e-016 0 -3.88251e-019 2.21583 -8.02969 -0.231382 0.00606954 8.97361 0.152052 -0.478043 -0.951424 0.0349019 2.03217e-016 0 3.88251e-019 1.3524 -1.92788 -0.00536357 0.0084641 -2.07867 0.0694382 0.42351 3.99898 -0.127238 
54.0923 85.0407 129.253 -2.33427 -0.280206 -47.5273 2.92569 0.952325 0.522742 0.46812 -2.21623 0.282581 -1.4977 2.57005 -0.299548 2.00752 -4.59515 -0.0417253 -0 0 0 -0 0 0 -9.81932e-015 -5.40938e-015 -3.00778e-014 22.2621 13.0473 -1.42563 -5.24483 -2.63037 7.90559 0.0442841 4.6709 0.648598 -3.10318e-010 2.05497e-010 -9.31686e-011 -5.37166e-010 3.53585e-010 -1.59258e-010 -3.10313e-010 2.05494e-010 -9.31765e-011 7.73091 5.47488 0.417314 -3.10318e-010 2.05494e-010 -9.31732e-011 2.90554 0.965183 0.102902 -3.10311e-010 2.05494e-010 -9.31775e-011 10.2786 0.731801 0.0259123 -3.10326e-010 2.05496e-010 -9.31682e-011 2.22167 -0.733487 -0.20892 -9.93321e-015 -5.4115e-015 -3.02949e-014 -22.3657 10.7057 2.13066 5.13153 -2.54742 -7.76684 -0.0183312 3.00403 -0.420095 -1.82292e-010 -1.3577e-010 -1.37403e-010 -3.15945e-010 -2.35943e-010 -2.37661e-010 -1.8229e-010 -1.35768e-010 -1.37388e-010 -7.73091 5.47488 -0.417314 -1.82294e-010 -1.35773e-010 -1.37398e-010 -2.90554 0.965183 -0.102902 -1.82294e-010 -1.35774e-010 -1.37398e-010 -10.2786 0.731801 -0.0259123 -1.8228e-010 -1.35764e-010 -1.37395e-010 -2.22167 -0.733487 0.20892 -2.03217e-016 0 -3.88251e-019 4.30166 -7.7002 4.39315 0.0247874 12.5069 0.207983 -1.19429 -3.50479 -7.48613 2.03217e-016 0 3.88251e-019 0.157951 -2.83371 -5.31862 -0.00862932 3.52086 -0.101434 1.11459 -0.973906 5.94628 
54.0153 85.0704 129.458 -3.1414 0.11641 -97.8153 3.52601 1.96395 1.0009 0.296219 -4.57376 0.462058 -3.05329 5.28794 -0.618121 4.12471 -9.45231 -0.0861452 -0 0 0 -0 0 0 8.91602e-015 -1.08842e-014 -6.58536e-014 46.5804 26.804 -3.19997 -10.007 -5.2434 16.3145 -0.0253905 9.61039 1.34926 -3.36718e-010 4.01551e-010 -1.92065e-010 -5.83988e-010 6.9092e-010 -3.28468e-010 -3.36713e-010 4.01546e-010 -1.92071e-010 7.73091 5.47488 0.417314 -3.36717e-010 4.01545e-010 -1.92067e-010 2.90554 0.965183 0.102902 -3.3671e-010 4.01545e-010 -1.9207e-010 10.2786 0.731801 0.0259123 -3.36726e-010 4.01548e-010 -1.92061e-010 2.22167 -0.733487 -0.20892 8.78261e-015 -1.08849e-014 -6.60928e-014 -46.9337 21.9695 4.64395 9.81295 -5.08473 -16.0269 0.0104461 6.18017 -0.86819 -9.53481e-011 -2.93433e-010 -2.87941e-010 -1.67075e-010 -5.09722e-010 -4.97935e-010 -9.53409e-011 -2.93427e-010 -2.87919e-010 -7.73091 5.47488 -0.417314 -9.53505e-011 -2.93439e-010 -2.87936e-010 -2.90554 0.965183 -0.102902 -9.53504e-011 -2.93441e-010 -2.87937e-010 -10.2786 0.731801 -0.0259123 -9.53317e-011 -2.93425e-010 -2.8793e-010 -2.22167 -0.733487 0.20892 -2.03217e-016 0 -3.88251e-019 6.45054 -7.30648 9.27248 0.0367508 16.2408 0.269793 -2.67653 -6.04197 -15.5038 2.03217e-016 0 3.88251e-019 -1.28114 -3.75693 -10.9414 0.0100012 9.44198 -0.285356 2.98369 -6.09428 12.4215 
54.0341 85.0664 129.398 -3.28985 0.999035 -142.64 4.04917 2.86063 1.44237 0.151149 -6.66026 0.627469 -4.41184 7.70929 -0.905928 6.00199 -13.7854 -0.128474 -0 0 0 -0 0 0 2.64037e-014 -1.64549e-014 -9.10286e-014 69.2062 39.0303 -5.36663 -13.6113 -7.29148 23.8968 -0.192605 14.0054 1.99877 -3.83586e-010 6.1437e-010 -2.86433e-010 -6.66209e-010 1.05708e-009 -4.8969e-010 -3.83581e-010 6.14364e-010 -2.86438e-010 7.73091 5.47488 0.417314 -3.83583e-010 6.14362e-010 -2.86434e-010 2.90554 0.965183 0.102902 -3.83577e-010 6.14362e-010 -2.86434e-010 10.2786 0.731801 0.0259123 -3.83594e-010 6.14365e-010 -2.86426e-010 2.22167 -0.733487 -0.20892 2.62581e-014 -1.64543e-014 -9.12822e-014 -69.8409 31.9231 7.40564 13.3729 -7.08176 -23.467 0.0785547 9.01015 -1.27428 4.90854e-013 -4.0947e-010 -4.19106e-010 -2.5671e-012 -7.11551e-010 -7.24942e-010 5.02556e-013 -4.09461e-010 -4.19078e-010 -7.73091 5.47488 -0.417314 4.88356e-013 -4.09479e-010 -4.19101e-010 -2.90554 0.965183 -0.102902 4.88651e-013 -4.09481e-010 -4.19102e-010 -10.2786 0.731801 -0.0259123 5.11327e-013 -4.09461e-010 -4.19092e-010 -2.22167 -0.733487 0.20892 -2.03217e-016 0 -3.88251e-019 8.30912 -6.91042 13.6194 0.0401261 19.5733 0.327697 -4.59487 -8.03556 -22.7213 2.03217e-016 0 3.88251e-019 -2.72758 -4.50197 -15.9762 0.0597879 14.7195 -0.45753 5.64353 -10.3888 18.4023 
54.0125 85.0535 129.511 -2.85038 1.548 -173.829 4.41089 3.47063 1.79064 0.0453262 -8.06946 0.754431 -5.3354 9.39007 -1.10987 7.29369 -16.8084 -0.16255 -0 0 0 -0 0 0 4.07723e-014 -2.2265e-014 -8.97016e-014 85.8062 47.5308 -7.54451 -15.7949 -8.49795 29.2407 -0.370177 17.0462 2.46973 -4.81622e-010 8.69103e-010 -3.69482e-010 -8.36925e-010 1.4953e-009 -6.30943e-010 -4.81617e-010 8.69095e-010 -3.69485e-010 7.73091 5.47488 0.417314 -4.81619e-010 8.69093e-010 -3.69482e-010 2.90554 0.965183 0.102902 -4.81613e-010 8.69093e-010 -3.6948e-010 10.2786 0.731801 0.0259123 -4.81631e-010 8.69096e-010 -3.69472e-010 2.22167 -0.733487 -0.20892 4.06327e-014 -2.22635e-014 -8.99501e-014 -86.5619 38.782 9.84634 15.5354 -8.2627 -28.6979 0.150091 10.9766 -1.562 1.18568e-010 -4.21443e-010 -5.01837e-010 2.01035e-010 -7.33503e-010 -8.68777e-010 1.18581e-010 -4.21432e-010 -5.01809e-010 -7.73091 5.47488 -0.417314 1.18565e-010 -4.21453e-010 -5.01834e-010 -2.90554 0.965183 -0.102902 1.18566e-010 -4.21455e-010 -5.01835e-010 -10.2786 0.731801 -0.0259123 1.1859e-010 -4.21433e-010 -5.01825e-010 -2.22167 -0.733487 0.20892 -2.03217e-016 0 -3.88251e-019 9.55793 -6.59521 16.6516 0.0380752 21.902 0.369553 -6.22869 -9.21102 -27.7618 2.03217e-016 0 3.88251e-019 -3.83814 -4.92768 -19.5148 0.114287 18.3884 -0.585372 8.07663 -13.1514 22.7979 
54.0046 85.0442 129.487 -2.54989 1.71733 174.102 4.56395 3.67943 2.01984 -0.0248841 -8.51266 0.828313 -5.67547 10.0372 -1.19305 7.77014 -18.0103 -0.186041 -0 0 0 -0 0 0 5.36481e-014 -2.83173e-014 -3.69277e-014 92.598 50.9185 -8.66705 -16.5849 -8.9138 31.3524 -0.451934 18.1948 2.65355 -7.09775e-010 1.27624e-009 -4.59276e-010 -1.23306e-009 2.19561e-009 -7.82418e-010 -7.09771e-010 1.27623e-009 -4.59278e-010 7.73091 5.47488 0.417314 -7.09772e-010 1.27623e-009 -4.59276e-010 2.90554 0.965183 0.102902 -7.09766e-010 1.27623e-009 -4.59273e-010 10.2786 0.731801 0.0259123 -7.09784e-010 1.27623e-009 -4.59267e-010 2.22167 -0.733487 -0.20892 5.35473e-014 -2.83153e-014 -3.7137e-014 -93.3453 41.46 10.9734 16.313 -8.666 -30.7483 0.183142 11.732 -1.67404 2.95242e-010 -2.6371e-010 -5.23805e-010 5.0696e-010 -4.62434e-010 -9.08732e-010 2.95253e-010 -2.63702e-010 -5.23781e-010 -7.73091 5.47488 -0.417314 2.9524e-010 -2.63721e-010 -5.23804e-010 -2.90554 0.965183 -0.102902 2.9524e-010 -2.63723e-010 -5.23804e-010 -10.2786 0.731801 -0.0259123 2.95263e-010 -2.63704e-010 -5.23796e-010 -2.22167 -0.733487 0.20892 -2.03217e-016 0 -3.88251e-019 10.0034 -6.41399 17.8539 0.0361072 22.827 0.3852 -6.90286 -9.60401 -29.652 2.03217e-016 0 3.88251e-019 -4.33608 -4.96529 -20.952 0.140236 19.802 -0.639071 9.22952 -14.1697 24.7423 
53.9993 85.0791 129.121 -2.55667 1.79695 175.696 4.57189 3.60186 2.16305 -0.0727814 -8.26679 0.863458 -5.60494 9.946 -1.18846 7.66634 -17.9108 -0.20105 -0 0 0 -0 0 0 6.53209e-014 -3.4547e-014 5.19108e-014 91.8573 50.6974 -8.57786 -16.5067 -8.87653 31.1348 -0.438698 17.9934 2.62141 -1.02808e-009 1.78777e-009 -5.52813e-010 -1.78537e-009 3.07544e-009 -9.39378e-010 -1.02808e-009 1.78777e-009 -5.52814e-010 7.73091 5.47488 0.417314 -1.02808e-009 1.78776e-009 -5.52814e-010 2.90554 0.965183 0.102902 -1.02808e-009 1.78776e-009 -5.5281e-010 10.2786 0.731801 0.0259123 -1.02809e-009 1.78777e-009 -5.52805e-010 2.22167 -0.733487 -0.20892 6.52818e-014 -3.45449e-014 5.17648e-014 -92.6316 41.2088 10.8527 16.2224 -8.61749 -30.5072 0.178532 11.6229 -1.65785 5.12464e-010 1.40959e-011 -5.02033e-010 8.83707e-010 1.59744e-011 -8.73889e-010 5.1247e-010 1.4099e-011 -5.0202e-010 -7.73091 5.47488 -0.417314 5.12462e-010 1.40867e-011 -5.02035e-010 -2.90554 0.965183 -0.102902 5.12461e-010 1.4084e-011 -5.02034e-010 -10.2786 0.731801 -0.0259123 5.12481e-010 1.40974e-011 -5.02032e-010 -2.22167 -0.733487 0.20892 -2.03217e-016 0 -3.88251e-019 9.8899 -6.33493 17.7509 0.0360648 22.7491 0.38115 -6.77505 -9.5371 -29.2722 2.03217e-016 0 3.88251e-019 -4.36746 -4.74663 -20.8857 0.136963 19.6051 -0.635966 9.2384 -14.0683 24.8625 
